{"title":"Tiny Christmas 2017 Movies HDRip x264 5.1 with Sample ☻rDX☻","magnet":"magnet:?xt=urn:btih:ad01d9fdb3e00f6ed293286efbf0161a9e347b91&dn=Tiny+Christmas+2017+Movies+HDRip+x264+5.1+with+Sample+%E2%98%BBrDX%E2%98%BB&tr=udp%3A%2F%2Ftracker.leechers-paradise.org%3A6969&tr=udp%3A%2F%2Fzer0day.ch%3A1337&tr=udp%3A%2F%2Fopen.demonii.com%3A1337&tr=udp%3A%2F%2Ftracker.coppersurfer.tk%3A6969&tr=udp%3A%2F%2Fexodus.desync.com%3A6969","uploader":"basicssom","categoryP":"video","categoryS":"movies","size":"888969463","seeders":"3","leechers":"23","description":"----------------------------------------------------------------\r\nTiny Christmas 2017 Movies HDRip x264 5.1 with Sample &#x263B;rDX&#x263B;\r\n\r\nSCREEN SHOTS &amp; POSTER:\r\n   <a href=\"\nhttp://iphonehosting.eu/2018/5/bank/index.html\" rel=\"nofollow\" target=\"_NEW\">\nhttp://iphonehosting.eu/2018/5/bank/index.html</a> <a href=\"\nhttp://iphonehosting.eu/2018/5/bank/1.html\" rel=\"nofollow\" target=\"_NEW\">\nhttp://iphonehosting.eu/2018/5/bank/1.html</a> <a href=\"\nhttp://iphonehosting.eu/2018/5/bank/2.html\" rel=\"nofollow\" target=\"_NEW\">\nhttp://iphonehosting.eu/2018/5/bank/2.html</a>   <a href=\"\nhttp://iphonehosting.eu/2018/5/bank/3.html\" rel=\"nofollow\" target=\"_NEW\">\nhttp://iphonehosting.eu/2018/5/bank/3.html</a>   <a href=\"\nhttp://iphonehosting.eu/2018/5/bank/4.html\" rel=\"nofollow\" target=\"_NEW\">\nhttp://iphonehosting.eu/2018/5/bank/4.html</a>   <a href=\"\nhttp://iphonehosting.eu/2018/5/bank/5.html\" rel=\"nofollow\" target=\"_NEW\">\nhttp://iphonehosting.eu/2018/5/bank/5.html</a>   <a href=\"\nhttp://iphonehosting.eu/2018/5/bank/6.html\" rel=\"nofollow\" target=\"_NEW\">\nhttp://iphonehosting.eu/2018/5/bank/6.html</a>   <a href=\"\nhttp://iphonehosting.eu/2018/5/bank/7.html\" rel=\"nofollow\" target=\"_NEW\">\nhttp://iphonehosting.eu/2018/5/bank/7.html</a>   <a href=\"\nhttp://iphonehosting.eu/2018/5/bank/8.html\" rel=\"nofollow\" target=\"_NEW\">\nhttp://iphonehosting.eu/2018/5/bank/8.html</a>   <a href=\"\nhttp://iphonehosting.eu/2018/5/bank/9.html\" rel=\"nofollow\" target=\"_NEW\">\nhttp://iphonehosting.eu/2018/5/bank/9.html</a>   <a href=\"\nhttp://iphonehosting.eu/2018/5/bank/10.html\" rel=\"nofollow\" target=\"_NEW\">\nhttp://iphonehosting.eu/2018/5/bank/10.html</a>\r\n\r\nFile size                                : 840 MiB\r\nDuration                                 : 1 h 6 min\r\nOverall bit rate mode                    : Constant\r\nOverall bit rate                         : 1 768 kb/s\r\nMovie name                               : Tiny Christmas 2017 Movies HDRip x264 5.1 &#x263B;rDX&#x263B;\r\n\r\nVideo\r\nID                                       : 2\r\nFormat                                   : AVC\r\nFormat/Info                              : Advanced Video Codec\r\nFormat profile                           : Main@L3\r\nFormat settings, CABAC                   : Yes\r\nFormat settings, ReFrames                : 2 frames\r\nFormat settings, GOP                     : M=1, N=12\r\nCodec ID                                 : V_MPEG4/ISO/AVC\r\nDuration                                 : 1 h 6 min\r\nBit rate mode                            : Constant\r\nBit rate                                 : 1 385 kb/s\r\nWidth                                    : 720 pixels\r\nHeight                                   : 400 pixels\r\nDisplay aspect ratio                     : 16:9\r\nFrame rate mode                          : Constant\r\nFrame rate                               : 23.976 (24000/1001) FPS\r\nColor space                              : YUV\r\nChroma subsampling                       : 4:2:0\r\nBit depth                                : 8 bits\r\nScan type                                : Progressive\r\nBits/(Pixel*Frame)                       : 0.201\r\nStream size                              : 641 MiB (76%)\r\nTitle                                    : &#x263B;rDX&#x263B;\r\nDefault                                  : Yes\r\nForced                                   : No\r\n\r\nAudio\r\nID                                       : 1\r\nFormat                                   : AC-3\r\nFormat/Info                              : Audio Coding 3\r\nMode extension                           : CM (complete main)\r\nFormat settings, Endianness              : Big\r\nCodec ID                                 : A_AC3\r\nDuration                                 : 1 h 6 min\r\nBit rate mode                            : Constant\r\nBit rate                                 : 384 kb/s\r\nChannel(s)                               : 6 channels\r\nChannel positions                        : Front: L C R, Side: L R, LFE\r\nSampling rate                            : 48.0 kHz\r\nFrame rate                               : 31.250 FPS (1536 spf)\r\nBit depth                                : 16 bits\r\nCompression mode                         : Lossy\r\nStream size                              : 182 MiB (22%)\r\nTitle                                    : &#x263B;rDX&#x263B;\r\nLanguage                                 : English\r\nDefault                                  : Yes\r\nForced                                   : No","last_updated":"2018-05-20T12:11:32.469Z","parsed":{"xt":"urn:btih:ad01d9fdb3e00f6ed293286efbf0161a9e347b91","dn":"Tiny Christmas 2017 Movies HDRip x264 5.1 with Sample ☻rDX☻","tr":["udp://exodus.desync.com:6969","udp://open.demonii.com:1337","udp://tracker.coppersurfer.tk:6969","udp://tracker.leechers-paradise.org:6969","udp://zer0day.ch:1337"],"infoHash":"ad01d9fdb3e00f6ed293286efbf0161a9e347b91","infoHashBuffer":{"type":"Buffer","data":[173,1,217,253,179,224,15,110,210,147,40,110,251,240,22,26,158,52,123,145]},"name":"Tiny Christmas 2017 Movies HDRip x264 5.1 with Sample ☻rDX☻","announce":["udp://exodus.desync.com:6969","udp://open.demonii.com:1337","udp://tracker.coppersurfer.tk:6969","udp://tracker.leechers-paradise.org:6969","udp://zer0day.ch:1337"],"urlList":[]}}